<svg width="16" height="16" viewBox="0 0 16 16" fill="none" xmlns="http://www.w3.org/2000/svg">
  <path fill="currentColor" d="M9.69329 7.99988L12.6494 5.04407C13.1171 4.57634 13.1171 3.81811 12.6494 3.35062C12.1821 2.88313 11.4234 2.88313 10.9561 3.35062L8.00008 6.30691L5.04401 3.35062C4.57676 2.88313 3.81805 2.88313 3.3508 3.35062C2.88307 3.81835 2.88307 4.57658 3.3508 5.04407L6.30662 7.99988L3.3508 10.9557C2.88307 11.4234 2.88307 12.1817 3.3508 12.6491C3.5843 12.8831 3.89109 12.9998 4.19741 12.9998C4.50348 12.9998 4.81051 12.8831 5.04401 12.6491L8.00008 9.69333L10.9561 12.6494C11.1899 12.8834 11.4964 13 11.8027 13C12.1091 13 12.4158 12.8834 12.6494 12.6494C13.1171 12.1817 13.1171 11.4234 12.6494 10.9559L9.69329 7.99988Z"/>
</svg>
