<svg width="16" height="16" viewBox="0 0 16 16" fill="none" xmlns="http://www.w3.org/2000/svg">
  <path fill="currentColor" fill-rule="evenodd" clip-rule="evenodd" d="M7.61845 1.70643C7.71965 1.60524 7.85689 1.54839 8 1.54839C8.14311 1.54839 8.28035 1.60524 8.38155 1.70643C8.48274 1.80762 8.53959 1.94487 8.53959 2.08798V2.1471L8.5396 2.15018C8.54104 2.51255 8.64841 2.86658 8.84849 3.1687C9.04782 3.46968 9.33048 3.70605 9.66192 3.84897C10.0006 3.99752 10.3759 4.04165 10.7398 3.97566C11.1051 3.90943 11.4422 3.73531 11.7076 3.4757L11.7534 3.42995C11.8035 3.37978 11.863 3.33998 11.9285 3.31282C11.994 3.28567 12.0642 3.27169 12.1351 3.27169C12.206 3.27169 12.2763 3.28567 12.3418 3.31282C12.4073 3.33998 12.4674 3.38039 12.5175 3.43056C12.5677 3.48067 12.6075 3.54018 12.6346 3.60569C12.6618 3.67119 12.6758 3.74141 12.6758 3.81232C12.6758 3.88323 12.6618 3.95344 12.6346 4.01895C12.6075 4.08445 12.5674 4.14427 12.5172 4.19438L12.4777 4.23376L12.4718 4.23987C12.2122 4.50526 12.038 4.84235 11.9718 5.20765C11.915 5.52088 11.9398 5.84255 12.0425 6.14202C12.0522 6.20804 12.0704 6.27268 12.0969 6.3343C12.2396 6.66737 12.4766 6.95143 12.7787 7.15151C13.0239 7.31385 13.3032 7.41516 13.5934 7.44837L13.5839 8.55979C13.316 8.59963 13.0589 8.69775 12.8313 8.84849C12.5303 9.04782 12.2939 9.3305 12.151 9.66195C12.0025 10.0006 11.9584 10.3759 12.0243 10.7398C12.0906 11.1051 12.2647 11.4422 12.5243 11.7076L12.5701 11.7534C12.6202 11.8035 12.66 11.863 12.6872 11.9285C12.7143 11.994 12.7283 12.0642 12.7283 12.1351C12.7283 12.206 12.7143 12.2763 12.6872 12.3418C12.66 12.4073 12.6196 12.4674 12.5694 12.5175C12.5193 12.5677 12.4598 12.6075 12.3943 12.6346C12.3288 12.6618 12.2586 12.6758 12.1877 12.6758C12.1168 12.6758 12.0466 12.6618 11.9811 12.6346C11.9155 12.6075 11.8557 12.5674 11.8056 12.5172L11.7662 12.4777L11.7601 12.4718C11.4947 12.2122 11.1577 12.038 10.7924 11.9718C10.4284 11.9058 10.0531 11.9499 9.7145 12.0985C9.38305 12.2414 9.10037 12.4778 8.90104 12.7787C8.70096 13.0809 8.59359 13.4349 8.59215 13.7973L8.59214 13.8004V13.912C8.59214 14.0551 8.53529 14.1924 8.4341 14.2936C8.3329 14.3948 8.19566 14.4516 8.05255 14.4516C7.90944 14.4516 7.7722 14.3948 7.671 14.2936C7.56981 14.1924 7.51296 14.0551 7.51296 13.912V13.8529L7.51275 13.8348C7.50403 13.4621 7.38338 13.1006 7.16649 12.7973C6.95434 12.5007 6.6597 12.2732 6.31946 12.143C5.9857 12.0009 5.61747 11.9596 5.2602 12.0243C4.8949 12.0906 4.55778 12.2647 4.29238 12.5243L4.24663 12.5701C4.19652 12.6202 4.13701 12.66 4.0715 12.6872C4.00599 12.7143 3.93578 12.7283 3.86487 12.7283C3.79396 12.7283 3.72374 12.7143 3.65824 12.6872C3.59273 12.66 3.53261 12.6196 3.4825 12.5694C3.43233 12.5193 3.39253 12.4598 3.36538 12.3943C3.33822 12.3288 3.32424 12.2586 3.32424 12.1877C3.32424 12.1168 3.33822 12.0466 3.36538 11.9811C3.39253 11.9155 3.43263 11.8557 3.4828 11.8056L3.52225 11.7662L3.52822 11.7601C3.78783 11.4947 3.96198 11.1577 4.02822 10.7924C4.0942 10.4284 4.05007 10.0531 3.90152 9.71447C3.75861 9.38303 3.52223 9.10037 3.22125 8.90104C2.91913 8.70096 2.5651 8.59359 2.20274 8.59214H2.08798C1.94487 8.59214 1.80762 8.53529 1.70643 8.4341C1.60524 8.3329 1.54839 8.19566 1.54839 8.05255C1.54839 7.90944 1.60524 7.7722 1.70643 7.671C1.80762 7.56981 1.94487 7.51296 2.08798 7.51296H2.1471L2.1652 7.51275C2.53793 7.50403 2.89942 7.38338 3.20268 7.16649C3.49929 6.95434 3.72677 6.65971 3.85701 6.31947C3.9991 5.98571 4.04044 5.61747 3.97566 5.2602C3.90943 4.8949 3.73531 4.55778 3.4757 4.29238L3.42995 4.24663C3.37978 4.19651 3.33998 4.137 3.31282 4.0715C3.28567 4.00599 3.27169 3.93578 3.27169 3.86487C3.27169 3.79396 3.28567 3.72374 3.31282 3.65824C3.33998 3.59273 3.38039 3.53261 3.43056 3.4825C3.48067 3.43233 3.54018 3.39253 3.60569 3.36538C3.67119 3.33822 3.74141 3.32424 3.81232 3.32424C3.88323 3.32424 3.95344 3.33822 4.01895 3.36538C4.08445 3.39253 4.14427 3.43264 4.19438 3.4828L4.23376 3.52225L4.23987 3.52822C4.50526 3.78783 4.84235 3.96198 5.20765 4.02822C5.52088 4.08501 5.84255 4.06023 6.14202 3.9575C6.20804 3.94779 6.27268 3.92956 6.3343 3.90315C6.66737 3.7604 6.95143 3.52338 7.15151 3.22125C7.35159 2.91913 7.45896 2.5651 7.46041 2.20274V2.08798C7.46041 1.94487 7.51726 1.80762 7.61845 1.70643ZM13.5861 8.55947C13.5854 8.55958 13.5847 8.55968 13.5839 8.55979L13.5693 10.2833C13.5443 10.3399 13.5368 10.4027 13.5479 10.4636C13.5587 10.5235 13.587 10.5788 13.6291 10.6227L13.6643 10.6579C13.8585 10.8518 14.0125 11.0821 14.1175 11.3356C14.2226 11.589 14.2767 11.8607 14.2767 12.1351C14.2767 12.4095 14.2226 12.6812 14.1175 12.9347C14.0125 13.1882 13.8585 13.4185 13.6643 13.6124C13.4705 13.8062 13.2405 13.96 12.9873 14.065C12.7338 14.1701 12.4621 14.2241 12.1877 14.2241C11.9133 14.2241 11.6416 14.1701 11.3881 14.065C11.1348 13.96 10.9046 13.8061 10.7107 13.6121L10.6768 13.5781L10.6774 13.5787L10.6753 13.5766L10.6713 13.5727L10.6678 13.5697C10.6635 13.5658 10.659 13.562 10.6544 13.5583L10.6544 13.5583L10.6544 13.5583C10.6144 13.5262 10.5669 13.5045 10.5161 13.4953C10.4552 13.4843 10.3924 13.4917 10.3358 13.5167L10.3282 13.5201C10.2727 13.5439 10.2254 13.5833 10.192 13.6337C10.1588 13.6838 10.141 13.7424 10.1405 13.8024L10.1405 13.8034L10.1405 13.8572V13.912C10.1405 14.4658 9.92054 14.9969 9.52897 15.3884C9.1374 15.78 8.60632 16 8.05255 16C7.49878 16 6.9677 15.78 6.57613 15.3884C6.18456 14.9969 5.96457 14.4658 5.96457 13.912V13.8647L5.96479 13.871L5.96457 13.8529V13.8647C5.96195 13.8048 5.942 13.7469 5.90708 13.6981C5.87093 13.6476 5.82041 13.6091 5.76209 13.5876C5.74678 13.582 5.73165 13.5759 5.71673 13.5693C5.66013 13.5443 5.59733 13.5368 5.53645 13.5479C5.47654 13.5587 5.42119 13.587 5.3773 13.6291L5.38123 13.6252L5.37515 13.6312L5.3773 13.6291L5.34211 13.6643C5.14819 13.8585 4.91791 14.0125 4.66444 14.1175C4.41096 14.2226 4.13926 14.2767 3.86487 14.2767C3.59047 14.2767 3.31877 14.2226 3.0653 14.1175C2.81182 14.0125 2.58154 13.8585 2.38762 13.6643C2.19378 13.4705 2.03998 13.2405 1.93502 12.9873C1.82994 12.7338 1.77586 12.4621 1.77586 12.1877C1.77586 11.9133 1.82994 11.6416 1.93502 11.3881C2.04004 11.1348 2.19394 10.9046 2.38793 10.7107L2.4234 10.6753L2.42134 10.6774L2.42734 10.6713L2.4234 10.6753C2.46553 10.6314 2.49381 10.576 2.50467 10.5161C2.51571 10.4552 2.50826 10.3924 2.48327 10.3358L2.47992 10.3282C2.45613 10.2727 2.41667 10.2254 2.36631 10.192C2.31625 10.1588 2.25763 10.141 2.1976 10.1405H2.19965L2.19656 10.1018V10.1405L2.1976 10.1405H2.08798C1.53421 10.1405 1.00313 9.92054 0.611554 9.52897C0.219983 9.1374 0 8.60632 0 8.05255C0 7.49879 0.219983 6.9677 0.611554 6.57613C1.00313 6.18456 1.53421 5.96457 2.08798 5.96457H2.1353L2.12899 5.96479L2.1471 5.96457H2.1353C2.19518 5.96195 2.25307 5.942 2.3019 5.90708C2.35245 5.87093 2.39094 5.82041 2.41239 5.76209C2.41802 5.74678 2.42414 5.73165 2.43072 5.71673C2.45571 5.66012 2.46316 5.59733 2.45212 5.53645C2.44126 5.47654 2.41298 5.42118 2.37086 5.37728L2.37479 5.38122V5.34211L2.36879 5.37515L2.37086 5.37728L2.33568 5.34211C2.14155 5.14819 1.98754 4.91791 1.88247 4.66444C1.77739 4.41096 1.72331 4.13926 1.72331 3.86487C1.72331 3.59048 1.77739 3.31877 1.88247 3.0653C1.98749 2.81195 2.14139 2.58178 2.33538 2.38793C2.52923 2.19394 2.7594 2.04004 3.01275 1.93502C3.26622 1.82994 3.53792 1.77586 3.81232 1.77586C4.08671 1.77586 4.35841 1.82994 4.61189 1.93502C4.86536 2.04009 5.09564 2.1941 5.28956 2.38823L5.32473 2.42341L5.3226 2.42134L5.32867 2.42734L5.32473 2.42341C5.36863 2.46553 5.42399 2.49381 5.48389 2.50467C5.54478 2.51571 5.60757 2.50826 5.66418 2.48327C5.70579 2.46491 5.74882 2.4503 5.79277 2.43955L5.72435 2.47996C5.74892 2.46943 5.7719 2.45582 5.79277 2.43955C5.80533 2.43893 5.82518 2.43235 5.82518 2.43235L5.79277 2.43955C5.81903 2.41907 5.84196 2.39437 5.86055 2.36631C5.89369 2.31627 5.91157 2.25767 5.91202 2.19767V2.08798C5.91202 1.53421 6.13201 1.00313 6.52358 0.611554C6.91515 0.219983 7.44623 0 8 0C8.55377 0 9.08485 0.219983 9.47642 0.611554C9.86799 1.00313 10.088 1.53421 10.088 2.08798V2.14505C10.0884 2.20508 10.1063 2.2637 10.1395 2.31376C10.1728 2.36412 10.2201 2.40362 10.2757 2.42741L10.2833 2.43068C10.3399 2.45566 10.4027 2.46316 10.4636 2.45212C10.5235 2.44126 10.5788 2.41298 10.6227 2.37085L10.6579 2.33568C10.8517 2.14169 11.0822 1.98749 11.3356 1.88247C11.589 1.77739 11.8607 1.72331 12.1351 1.72331C12.4095 1.72331 12.6812 1.77739 12.9347 1.88247C13.1882 1.98754 13.4184 2.14153 13.6123 2.33564C13.8062 2.52943 13.96 2.75953 14.065 3.01275C14.1701 3.26622 14.2241 3.53792 14.2241 3.81232C14.2241 4.08671 14.1701 4.35841 14.065 4.61189C13.96 4.86523 13.8058 5.09571 13.6118 5.28956L13.5766 5.32474C13.5345 5.36864 13.5062 5.42399 13.4953 5.48389C13.4843 5.54478 13.4917 5.60757 13.5167 5.66418C13.5351 5.70579 13.5497 5.74882 13.5605 5.79277C13.5742 5.81038 13.5898 5.82649 13.6071 5.8408L13.5934 7.44837C13.5939 7.44842 13.5943 7.44848 13.5948 7.44853L13.5861 8.55947ZM13.5861 8.55947C13.6731 8.54664 13.7612 8.53995 13.8498 8.5396L13.8529 8.53958L13.912 8.53959C14.0551 8.53959 14.1924 8.48274 14.2936 8.38155C14.3948 8.28035 14.4516 8.14311 14.4516 8C14.4516 7.85689 14.3948 7.71965 14.2936 7.61845C14.1924 7.51726 14.0551 7.46041 13.912 7.46041H13.8004L13.7973 7.4604C13.7294 7.46013 13.6618 7.45615 13.5948 7.44853L13.6074 5.84109C13.6158 5.84801 13.6246 5.85451 13.6337 5.86055C13.6837 5.89369 13.7423 5.91157 13.8023 5.91202H13.912C14.4658 5.91202 14.9969 6.13201 15.3884 6.52358C15.78 6.91515 16 7.44623 16 8C16 8.55377 15.78 9.08485 15.3884 9.47642C14.9969 9.86799 14.4658 10.088 13.912 10.088H13.8549C13.7949 10.0884 13.7363 10.1063 13.6862 10.1395C13.6359 10.1728 13.5964 10.2201 13.5726 10.2757L13.5861 8.55947ZM13.6074 5.84109L13.6118 5.28956L13.6071 5.8408C13.6072 5.84089 13.6073 5.84099 13.6074 5.84109ZM10.6544 13.5583L10.6768 13.5781L10.6753 13.5766C10.6728 13.5742 10.6703 13.5719 10.6678 13.5697L10.6544 13.5583C10.6544 13.5583 10.6544 13.5583 10.6544 13.5583ZM6.80343 8.00092C6.80343 7.34012 7.33911 6.80444 7.99991 6.80444C8.66071 6.80444 9.19639 7.34012 9.19639 8.00092C9.19639 8.66171 8.66071 9.1974 7.99991 9.1974C7.33911 9.1974 6.80343 8.66171 6.80343 8.00092ZM7.99991 5.25605C6.48396 5.25605 5.25504 6.48497 5.25504 8.00092C5.25504 9.51686 6.48396 10.7458 7.99991 10.7458C9.51586 10.7458 10.7448 9.51686 10.7448 8.00092C10.7448 6.48497 9.51586 5.25605 7.99991 5.25605Z"/>
</svg>
